<?xml version="1.0" encoding="UTF-8"?>
<svg width="15px" height="15px" viewBox="0 0 15 15" version="1.1" xmlns="http://www.w3.org/2000/svg" xmlns:xlink="http://www.w3.org/1999/xlink">
    <!-- Generator: Sketch 39.1 (31720) - http://www.bohemiancoding.com/sketch -->
    <title>Shape Copy 3</title>
    <desc>Created with Sketch.</desc>
    <defs></defs>
    <g id="Portfolio-Design" stroke="none" stroke-width="1" fill="none" fill-rule="evenodd">
        <g id="Artboard" transform="translate(-50.000000, -162.000000)" fill="#FFFFFF">
            <g id="table" transform="translate(-26.000000, 35.000000)">
                <path d="M80.0258086,140.925112 L76,142.023475 L77.0926649,137.996133 L85.1382681,129.939223 L88.0713216,132.868202 L80.0257936,140.925112 L80.0258086,140.925112 L80.0258086,140.925112 L80.0258086,140.925112 Z M89.171008,127.294849 C88.9657002,127.102171 88.7303667,127.005704 88.4650977,127.005869 C88.1996635,127.006019 87.9705696,127.102862 87.7779666,127.295856 L86.1145593,128.961489 L89.0476128,131.890468 L90.7110201,130.224745 C90.9036231,130.031826 91.0001652,129.802431 90.9999998,129.536997 C90.9998494,129.271803 90.9029315,129.03662 90.7100879,128.831538 L89.171008,127.294849 L89.171008,127.294849 L89.171008,127.294849 L89.171008,127.294849 Z" id="Shape-Copy-3"></path>
            </g>
        </g>
    </g>
</svg>