<?xml version="1.0" encoding="UTF-8"?>
<svg width="23px" height="23px" viewBox="0 0 23 23" version="1.1" xmlns="http://www.w3.org/2000/svg" xmlns:xlink="http://www.w3.org/1999/xlink">
    <!-- Generator: Sketch 39.1 (31720) - http://www.bohemiancoding.com/sketch -->
    <title>globe-w</title>
    <desc>Created with Sketch.</desc>
    <defs></defs>
    <g id="Stats-Design-Copy-2" stroke="none" stroke-width="1" fill="none" fill-rule="evenodd">
        <g id="Artboard" transform="translate(-299.000000, -9.000000)" fill="#FFFFFF">
            <g id="Nav-bar">
                <g id="globe-w" transform="translate(299.000000, 9.000000)">
                    <rect id="Rectangle-path" x="0.836625" y="14.8199063" width="21.3274687" height="0.71875"></rect>
                    <rect id="Rectangle-path" x="0.836625" y="7.46134375" width="21.3274687" height="0.71875"></rect>
                    <path d="M12.3545937,22.864875 L11.8112187,22.3948125 C11.8557812,22.3430625 16.3034062,17.12925 16.3034062,10.939375 C16.3034062,4.76603125 11.914,0.72953125 11.8694375,0.68928125 L12.351,0.15596875 C12.5421875,0.32846875 17.0221562,4.4505 17.0221562,10.939375 C17.0221562,17.4016562 12.5457812,22.6449375 12.3545937,22.864875 L12.3545937,22.864875 Z" id="Shape"></path>
                    <path d="M10.6418125,22.864875 C10.4513438,22.6449375 5.977125,17.4016563 5.977125,10.9386563 C5.977125,4.44978125 10.4570938,0.32775 10.6482813,0.15525 L11.1298437,0.6885625 C11.0852813,0.7288125 6.695875,4.7768125 6.695875,10.9386563 C6.695875,17.1364375 11.140625,22.3423438 11.1851875,22.3940938 L10.6418125,22.864875 L10.6418125,22.864875 Z" id="Shape"></path>
                    <path d="M11.5,22.9877812 C5.1591875,22.9877812 0,17.8343437 0,11.5 C0,5.16565625 5.15846875,0.01221875 11.5,0.01221875 C17.8415312,0.01221875 23,5.16565625 23,11.5 C23,17.8343437 17.8408125,22.9877812 11.5,22.9877812 L11.5,22.9877812 Z M11.5,0.73096875 C5.5545,0.73096875 0.71875,5.5616875 0.71875,11.5 C0.71875,17.4383125 5.55521875,22.2690312 11.5,22.2690312 C17.4447813,22.2690312 22.28125,17.4383125 22.28125,11.5 C22.28125,5.5616875 17.4447813,0.73096875 11.5,0.73096875 L11.5,0.73096875 Z" id="Shape"></path>
                </g>
            </g>
        </g>
    </g>
</svg>